<?xml version="1.0" encoding="UTF-8"?>
<svg version="1.0" xmlns="http://www.w3.org/2000/svg" width="165.606" height="158" viewBox="0 0 124.205 118.5"><path d="M0 59.25v59.25h124.205V0H0zm56.955 -46.155c0.933 0.143 1.958 0.609 2.58 1.154l0.48 0.415 0.622 -0.48c0.959 -0.739 1.647 -0.998 2.852 -1.063 1.335 -0.078 2.243 0.194 3.306 0.972l0.765 0.57 0.48 -0.415c1.011 -0.895 2.71 -1.374 4.058 -1.167 0.908 0.156 1.543 0.415 2.321 0.972 0.532 0.376 0.7 0.441 1.128 0.376 1.296 -0.169 3.099 0.583 4.24 1.776 0.933 0.985 1.271 1.724 1.348 2.995l0.052 0.998 0.635 0.065c0.998 0.117 2.036 0.687 2.982 1.634 1.102 1.102 1.439 1.932 1.4 3.423l-0.026 1.024 0.7 0.376c2.139 1.167 3.501 3.941 3.138 6.34 -0.169 1.063 -0.648 2.165 -1.284 2.943l-0.454 0.557 0.817 0.817c1.296 1.296 2.048 3.163 1.88 4.654 -0.078 0.609 -0.065 0.622 0.674 1.361 1.154 1.167 1.698 2.528 1.698 4.317 0 2.243 -0.985 4.188 -2.671 5.264l-0.661 0.428 0.052 0.882c0.169 2.243 -1.322 5.043 -3.176 5.99 -0.454 0.233 -0.545 0.337 -0.545 0.661 0 0.7 -0.285 1.75 -0.726 2.684 -0.804 1.685 -2.463 3.021 -4.265 3.423 -0.648 0.143 -0.713 0.194 -0.856 0.622 -0.7 2.191 -2.697 3.967 -5.238 4.616 -0.946 0.246 -2.762 0.246 -3.656 0.013 -1.063 -0.285 -1.984 -0.765 -2.826 -1.465l-0.778 -0.648 -0.557 0.622c-0.635 0.713 -1.789 1.335 -2.904 1.569 -1.426 0.298 -3.254 -0.337 -4.447 -1.53l-0.661 -0.661 -0.648 0.596c-1.232 1.128 -2.826 1.698 -4.719 1.698 -3.267 0 -6.055 -1.893 -7.053 -4.771 -0.143 -0.415 -0.233 -0.467 -1.141 -0.726 -1.193 -0.35 -2.1 -0.921 -2.956 -1.854 -1.024 -1.115 -1.685 -2.658 -1.685 -3.915 0 -0.57 -0.026 -0.609 -0.583 -0.908 -0.752 -0.389 -2.036 -1.763 -2.476 -2.619 -0.545 -1.089 -0.856 -2.515 -0.765 -3.501l0.078 -0.856 -0.428 -0.182c-0.622 -0.259 -1.802 -1.517 -2.217 -2.373 -1.245 -2.567 -0.765 -5.692 1.154 -7.468l0.622 -0.57 -0.026 -0.921c-0.078 -1.66 0.765 -3.514 2.1 -4.693l0.609 -0.545 -0.57 -0.7c-1.4 -1.724 -1.634 -4.149 -0.596 -6.418 0.441 -0.998 1.672 -2.321 2.554 -2.762l0.622 -0.311V25.282c0 -0.972 0.039 -1.206 0.402 -1.984 0.726 -1.53 2.45 -2.839 4.006 -3.021l0.661 -0.078 0.013 -0.804c0.013 -1.491 0.739 -2.852 2.01 -3.786 1.05 -0.778 2.01 -1.128 3.228 -1.154 0.869 -0.013 1.05 -0.065 1.465 -0.376 0.765 -0.596 1.789 -0.959 2.982 -1.102 0.078 0 0.467 0.039 0.882 0.117M34.111 89.147c1.53 0.48 2.606 1.958 2.878 3.967l0.078 0.493h-1.893l-0.091 -0.557c-0.22 -1.4 -1.05 -2.256 -2.308 -2.386 -1.206 -0.117 -2.074 0.311 -2.606 1.296 -0.285 0.532 -0.285 0.635 -0.285 5.225v4.68l0.389 0.635c0.557 0.908 1.271 1.258 2.437 1.18 0.726 -0.052 0.959 -0.117 1.361 -0.441 0.545 -0.428 1.024 -1.284 1.154 -2.023l0.078 -0.48h1.815l-0.078 0.713c-0.078 0.778 -0.532 1.893 -1.063 2.58 -0.765 0.998 -2.723 1.621 -4.317 1.361 -1.569 -0.246 -2.58 -0.985 -3.228 -2.386l-0.363 -0.778v-10.113l0.337 -0.713c0.182 -0.402 0.532 -0.946 0.765 -1.219 1.063 -1.193 3.086 -1.621 4.94 -1.037m50.823 0.519c0.635 0.311 1.011 0.583 1.387 1.076 0.778 0.972 0.998 1.75 0.998 3.449 0 1.776 -0.246 2.658 -1.011 3.591 -0.985 1.206 -1.893 1.53 -4.33 1.53H80.383v5.834h-1.815V89.186l2.762 0.039 2.749 0.039zM47.711 93.387c0.921 0.454 1.543 1.193 1.841 2.204 0.233 0.752 0.233 6.431 0 7.183 -0.298 0.998 -0.933 1.75 -1.893 2.243 -0.804 0.415 -0.972 0.441 -1.997 0.441 -1.763 -0.013 -2.904 -0.648 -3.591 -2.01 -0.441 -0.843 -0.583 -1.932 -0.583 -4.265 0 -3.06 0.259 -4.149 1.219 -5.16 1.154 -1.245 3.267 -1.504 5.004 -0.635m11.811 -0.298c0.83 0.233 1.491 0.817 1.906 1.711 0.22 0.454 0.428 1.037 0.48 1.296l0.078 0.493h-1.802l-0.091 -0.519c-0.117 -0.713 -0.583 -1.232 -1.284 -1.426 -1.4 -0.389 -2.671 0.311 -2.671 1.465 0 0.985 0.415 1.322 2.891 2.347 1.802 0.739 2.515 1.348 2.93 2.45 0.207 0.519 0.169 1.971 -0.039 2.476 -0.285 0.687 -1.05 1.439 -1.802 1.776 -0.778 0.35 -2.347 0.415 -3.293 0.143 -1.335 -0.389 -2.347 -1.556 -2.606 -2.982l-0.117 -0.674h1.763l0.091 0.467c0.104 0.545 0.57 1.141 1.115 1.426 0.22 0.117 0.726 0.194 1.206 0.194 1.387 0 2.01 -0.519 2.01 -1.672 0 -1.063 -0.143 -1.167 -3.41 -2.671 -1.348 -0.609 -1.893 -1.05 -2.243 -1.828 -0.622 -1.322 -0.272 -3.073 0.791 -3.877 1.024 -0.791 2.593 -1.011 4.097 -0.596m8.648 2.813c0.506 1.491 1.076 3.215 1.271 3.864 0.194 0.635 0.389 1.219 0.441 1.271s0.428 -1.024 0.83 -2.399c0.415 -1.374 0.946 -3.163 1.193 -3.967l0.454 -1.452h0.908c0.493 0 0.895 0.026 0.895 0.065 0 0.156 -3.539 11.876 -3.967 13.159 -0.791 2.347 -1.595 3.099 -3.254 3.112H66.121v-1.647l0.648 -0.065c1.063 -0.104 1.478 -0.674 2.061 -2.775l0.298 -1.05 -1.893 -5.342c-1.037 -2.943 -1.893 -5.368 -1.893 -5.406 0 -0.026 0.428 -0.052 0.959 -0.052h0.946zm25.061 -1.426c0.233 0.7 0.843 2.515 1.348 4.032l0.921 2.749 0.804 -2.749c0.441 -1.517 0.985 -3.332 1.206 -4.032l0.389 -1.258h0.895c0.506 0 0.908 0.026 0.908 0.065 0 0.13 -3.514 11.798 -3.967 13.185 -0.752 2.295 -1.582 3.073 -3.254 3.086H91.662v-1.647l0.648 -0.065c1.063 -0.104 1.478 -0.674 2.061 -2.775l0.298 -1.05 -1.893 -5.342c-1.037 -2.943 -1.893 -5.368 -1.893 -5.406 0 -0.026 0.428 -0.052 0.959 -0.052h0.959z"/><path d="M55.088 14.586c-0.726 0.233 -1.724 1.089 -2.074 1.763 -0.13 0.272 -0.285 0.778 -0.324 1.115 -0.104 0.83 -0.363 1.206 -0.804 1.206 -0.207 0 -0.428 -0.065 -0.519 -0.156 -0.233 -0.233 -0.182 -1.232 0.091 -2.036l0.246 -0.687 -0.519 0.078c-1.115 0.182 -2.347 1.024 -2.93 2.01 -0.298 0.519 -0.35 0.739 -0.35 1.634 0 0.804 0.065 1.154 0.285 1.556 0.389 0.739 1.115 1.426 1.919 1.802 0.856 0.402 1.076 0.739 0.778 1.193 -0.259 0.402 -0.674 0.402 -1.582 -0.026 -0.817 -0.389 -1.984 -1.491 -2.243 -2.113 -0.169 -0.415 -0.194 -0.428 -0.752 -0.35 -1.374 0.182 -2.645 1.076 -3.215 2.23 -0.298 0.609 -0.337 0.817 -0.285 1.582 0.065 0.908 0.363 1.647 0.933 2.321 0.285 0.337 0.817 0.648 2.152 1.258 0.635 0.298 0.389 1.245 -0.324 1.245 -0.972 0 -2.878 -1.258 -3.384 -2.23 -0.182 -0.363 -0.194 -0.363 -0.596 -0.156 -0.687 0.363 -1.724 1.439 -2.087 2.165 -1.491 3.06 0.22 6.366 3.552 6.833 0.428 0.065 0.869 0.182 0.972 0.272 0.246 0.194 0.233 0.817 -0.013 1.024 -0.298 0.246 -1.685 0.091 -2.658 -0.298l-0.83 -0.337 -0.57 0.467c-2.243 1.841 -2.528 4.797 -0.635 6.871 0.687 0.739 1.919 1.465 2.528 1.465 0.311 0 0.804 0.415 0.804 0.7 0 0.104 -0.104 0.311 -0.233 0.467 -0.207 0.259 -0.311 0.285 -0.843 0.207 -1.4 -0.207 -3.28 -1.543 -4.071 -2.904l-0.337 -0.557 -0.376 0.363c-0.687 0.661 -1.063 1.634 -1.115 2.943 -0.065 1.374 0.065 1.958 0.648 2.93 1.063 1.75 3.189 2.515 5.342 1.893 0.687 -0.207 0.778 -0.207 1.063 -0.013 0.376 0.233 0.402 0.713 0.078 1.011 -0.389 0.363 -1.763 0.635 -2.904 0.583l-1.037 -0.039 0.052 1.063c0.13 2.502 1.906 4.434 4.265 4.654 0.687 0.065 1.063 0.026 1.789 -0.194 0.998 -0.298 1.348 -0.246 1.504 0.246 0.233 0.739 -1.05 1.361 -2.839 1.361h-1.011l0.078 0.583c0.194 1.426 1.452 3.112 2.8 3.747 0.959 0.454 2.839 0.48 3.786 0.039 0.7 -0.311 1.66 -1.154 2.061 -1.789 0.324 -0.545 0.804 -0.687 1.154 -0.376 0.363 0.324 0.324 0.713 -0.117 1.309 -0.908 1.232 -2.424 2.295 -3.526 2.463 -0.285 0.052 -0.506 0.143 -0.506 0.207s0.143 0.402 0.324 0.765c1.789 3.501 7.001 4.227 9.646 1.335 0.363 -0.402 0.661 -0.765 0.661 -0.804 0 -0.052 -0.117 -0.272 -0.246 -0.493 -0.182 -0.285 -0.609 -0.583 -1.517 -1.037 -1.361 -0.687 -2.204 -1.4 -2.632 -2.23 -0.311 -0.609 -0.207 -1.115 0.246 -1.258 0.285 -0.091 0.908 0.22 0.908 0.454 0 0.363 1.05 1.232 2.217 1.828 1.517 0.778 2.087 1.361 2.334 2.36 0.324 1.426 0.998 2.204 2.321 2.697 1.802 0.687 4.084 -0.415 4.538 -2.191 0.376 -1.504 0.933 -2.152 2.437 -2.826 1.076 -0.493 1.698 -0.959 2.061 -1.569 0.182 -0.311 0.441 -0.622 0.57 -0.7 0.324 -0.169 0.726 -0.039 0.908 0.285 0.389 0.752 -0.843 2.191 -2.71 3.138 -1.984 1.024 -2.126 1.374 -0.998 2.502 2.71 2.71 7.675 1.971 9.451 -1.426 0.441 -0.83 0.428 -0.933 -0.104 -1.024 -1.154 -0.182 -2.943 -1.452 -3.656 -2.58 -0.389 -0.622 -0.389 -0.946 0.013 -1.219 0.428 -0.285 0.765 -0.143 1.232 0.532 0.467 0.687 0.998 1.141 1.867 1.595 0.596 0.311 0.804 0.35 1.958 0.35 1.167 0 1.361 -0.039 1.984 -0.363 1.361 -0.713 2.541 -2.334 2.71 -3.695l0.065 -0.609 -1.076 -0.013c-1.75 -0.013 -3.008 -0.622 -2.775 -1.348 0.156 -0.506 0.532 -0.57 1.517 -0.259 0.7 0.233 1.063 0.285 1.698 0.22 1.841 -0.182 2.982 -0.972 3.812 -2.658 0.428 -0.843 0.493 -1.128 0.532 -2.023l0.052 -1.05 -0.946 0.039c-1.089 0.052 -2.256 -0.156 -2.826 -0.506 -0.519 -0.311 -0.545 -0.804 -0.065 -1.102 0.311 -0.207 0.376 -0.207 1.011 -0.013 0.959 0.311 2.36 0.285 3.241 -0.052 2.878 -1.076 3.799 -4.966 1.789 -7.61 -0.169 -0.22 -0.35 -0.415 -0.402 -0.415 -0.039 0 -0.207 0.233 -0.376 0.532 -0.752 1.309 -2.152 2.386 -3.591 2.775 -1.05 0.285 -1.491 0.156 -1.491 -0.441 0 -0.48 0.156 -0.596 1.206 -0.921 0.674 -0.207 1.037 -0.428 1.621 -0.972 2.347 -2.165 2.256 -5.186 -0.194 -7.234l-0.545 -0.454 -0.791 0.311c-0.428 0.182 -1.154 0.35 -1.621 0.402 -0.7 0.065 -0.895 0.039 -1.102 -0.156 -0.143 -0.13 -0.259 -0.337 -0.259 -0.454 0 -0.428 0.324 -0.635 1.232 -0.778 1.219 -0.182 2.126 -0.648 2.852 -1.452 0.778 -0.869 1.115 -1.647 1.193 -2.775 0.143 -1.945 -0.933 -3.941 -2.528 -4.706 -0.441 -0.207 -0.441 -0.194 -0.713 0.182 -0.765 1.089 -2.087 1.958 -3.202 2.1 -0.428 0.065 -0.519 0.026 -0.713 -0.272 -0.35 -0.532 -0.13 -0.882 0.778 -1.167 0.946 -0.298 1.867 -1.128 2.282 -2.061 0.402 -0.895 0.402 -2.139 0.026 -2.878 -0.57 -1.089 -1.893 -2.01 -3.189 -2.204 -0.57 -0.091 -0.57 -0.091 -0.908 0.48 -0.441 0.765 -1.374 1.608 -2.204 1.997 -0.817 0.376 -1.141 0.389 -1.439 0.065 -0.415 -0.454 -0.22 -0.817 0.674 -1.271 1.037 -0.506 1.504 -0.946 1.932 -1.815 0.428 -0.895 0.467 -2.048 0.078 -2.891 -0.467 -1.063 -1.802 -2.048 -3.073 -2.282 -0.467 -0.078 -0.506 -0.065 -0.402 0.156 0.052 0.13 0.194 0.635 0.298 1.115 0.182 0.791 0.182 0.895 -0.026 1.193 -0.143 0.233 -0.324 0.337 -0.583 0.337 -0.48 0 -0.609 -0.182 -0.713 -1.024 -0.169 -1.309 -0.843 -2.243 -2.074 -2.904 -0.83 -0.428 -2.243 -0.402 -3.215 0.078 -1.206 0.596 -2.048 1.854 -2.048 3.086 0 0.713 -0.765 1.024 -1.232 0.506 -0.246 -0.272 -0.22 -0.661 0.143 -2.23 0.065 -0.298 0 -0.428 -0.35 -0.765 -1.335 -1.258 -3.643 -1.232 -4.901 0.065l-0.428 0.441 0.207 0.596c0.246 0.713 0.272 1.776 0.052 1.997 -0.207 0.207 -0.817 0.194 -0.998 -0.026 -0.091 -0.104 -0.207 -0.532 -0.272 -0.959 -0.13 -0.933 -0.35 -1.374 -0.998 -1.984 -1.024 -0.985 -2.541 -1.361 -3.812 -0.959m1.309 2.632c0.285 0.233 0.285 0.285 0.156 0.843 -0.22 0.882 -0.194 1.374 0.156 2.113 0.337 0.713 0.791 1.128 1.828 1.647 0.687 0.337 1.595 1.219 1.919 1.854 0.726 1.426 0.428 3.941 -0.48 3.941 -0.156 0 -0.402 -0.117 -0.532 -0.259 -0.207 -0.233 -0.22 -0.324 -0.065 -1.011 0.285 -1.361 -0.246 -2.515 -1.517 -3.254 -1.387 -0.817 -1.724 -1.076 -2.113 -1.672 -0.713 -1.076 -0.946 -2.334 -0.622 -3.449 0.272 -0.959 0.7 -1.219 1.271 -0.752m15.636 -0.039c0.402 0.272 0.622 1.219 0.519 2.165 -0.169 1.634 -1.011 2.813 -2.645 3.669 -1.478 0.765 -1.984 1.75 -1.685 3.267 0.13 0.726 0.13 0.83 -0.091 1.076 -0.298 0.324 -0.739 0.337 -1.011 0.026 -0.363 -0.389 -0.545 -1.595 -0.363 -2.437 0.298 -1.543 1.011 -2.437 2.606 -3.345 1.491 -0.83 1.997 -1.789 1.698 -3.215 -0.13 -0.674 -0.13 -0.817 0.052 -1.089 0.233 -0.35 0.532 -0.402 0.921 -0.117m-17.153 7.221c0.117 0.091 0.246 0.311 0.285 0.493 0.104 0.415 -0.169 0.674 -1.011 0.946 -0.35 0.117 -1.024 0.493 -1.491 0.843 -0.48 0.35 -1.063 0.7 -1.296 0.804 -0.389 0.156 -0.415 0.194 -0.337 0.635 0.259 1.426 1.296 2.399 2.891 2.749 0.752 0.156 0.959 0.35 0.895 0.856 -0.052 0.506 -0.467 0.674 -1.284 0.532 -2.023 -0.363 -3.436 -1.789 -3.877 -3.889 -0.13 -0.635 -0.194 -0.765 -0.48 -0.83 -0.182 -0.052 -0.596 -0.233 -0.933 -0.428 -0.324 -0.182 -0.83 -0.454 -1.115 -0.596 -0.389 -0.194 -0.532 -0.35 -0.557 -0.622 -0.104 -0.908 0.635 -0.959 2.256 -0.143 1.4 0.7 1.75 0.687 2.8 -0.104 0.804 -0.596 1.517 -0.985 2.243 -1.219 0.674 -0.207 0.752 -0.207 1.011 -0.026m19.305 0.194c0.324 0.117 1.011 0.519 1.517 0.882 1.296 0.959 1.893 1.024 3.073 0.298 1.141 -0.7 1.88 -0.817 2.126 -0.35 0.298 0.545 0.117 0.765 -1.141 1.426 -0.674 0.35 -1.296 0.635 -1.4 0.635 -0.194 0 -0.441 0.506 -0.441 0.908 0 0.545 -0.557 1.711 -1.115 2.321 -0.648 0.713 -1.75 1.322 -2.813 1.543 -0.804 0.169 -1.076 0.091 -1.271 -0.376 -0.207 -0.506 0.078 -0.83 0.908 -1.011 0.933 -0.194 1.258 -0.35 1.802 -0.856 0.557 -0.493 0.933 -1.154 1.063 -1.893 0.078 -0.441 0.065 -0.48 -0.337 -0.622 -0.246 -0.091 -0.726 -0.376 -1.063 -0.661 -0.7 -0.545 -1.452 -0.959 -1.997 -1.089 -0.739 -0.169 -0.959 -1.115 -0.324 -1.374 0.311 -0.117 0.48 -0.091 1.413 0.22M46.804 31.894c0.337 0.337 0.324 0.467 -0.065 1.335 -0.752 1.634 -0.545 2.554 0.713 3.176 0.583 0.285 0.895 0.35 1.776 0.363 1.18 0.013 1.465 0.143 1.465 0.7 0 0.583 -0.298 0.713 -1.608 0.7 -2.01 -0.013 -3.371 -0.752 -3.967 -2.152 -0.246 -0.57 -0.285 -0.83 -0.22 -1.569 0.091 -1.089 0.7 -2.502 1.154 -2.684 0.428 -0.169 0.467 -0.156 0.752 0.13m11.513 -0.052c0.259 0.182 0.285 0.298 0.285 1.426v1.219h1.556v-1.141c0 -1.219 0.039 -1.335 0.493 -1.569 0.246 -0.13 0.363 -0.13 0.622 0.052 0.298 0.194 0.311 0.272 0.311 1.426v1.232h1.556v-1.219c0 -1.258 0.052 -1.387 0.609 -1.556 0.194 -0.065 0.363 -0.013 0.545 0.169 0.233 0.233 0.272 0.441 0.272 1.439v1.167h1.556v-1.219c0 -1.258 0.052 -1.387 0.609 -1.556 0.194 -0.065 0.363 -0.013 0.545 0.169 0.233 0.233 0.272 0.441 0.272 1.439v1.167h1.543l0.039 -1.258c0.039 -1.18 0.065 -1.271 0.337 -1.413 0.739 -0.363 1.063 0.13 1.063 1.634 0 1.011 0 1.011 0.376 1.102 0.454 0.091 1.024 0.674 1.167 1.18 0.091 0.376 0.091 0.376 1.361 0.441 1.322 0.065 1.504 0.156 1.504 0.739 0 0.493 -0.467 0.687 -1.647 0.687H72.215v1.556h1.232c1.102 0 1.232 0.026 1.361 0.272 0.22 0.389 0.104 0.804 -0.259 0.985 -0.182 0.091 -0.778 0.169 -1.322 0.169H72.215v1.556h1.219c1.335 0 1.556 0.104 1.478 0.739 -0.052 0.506 -0.506 0.687 -1.685 0.687H72.215v1.426h1.076c1.258 0 1.647 0.182 1.647 0.778 0 0.532 -0.298 0.648 -1.608 0.648H72.215v1.556h1.128c1.219 0 1.595 0.169 1.595 0.726s-0.311 0.7 -1.556 0.7h-1.141l-0.143 0.415c-0.194 0.557 -0.609 0.972 -1.128 1.141l-0.441 0.156v0.985c0 0.545 -0.039 1.128 -0.078 1.284 -0.104 0.402 -0.726 0.596 -1.076 0.35 -0.246 -0.182 -0.272 -0.324 -0.272 -1.426V51.082h-1.556v1.154c0 1.296 -0.13 1.569 -0.778 1.569 -0.532 0 -0.648 -0.311 -0.648 -1.608V51.082h-1.556v1.206c0 1.348 -0.091 1.517 -0.739 1.517 -0.57 0 -0.687 -0.272 -0.687 -1.608V51.082h-1.556v1.219c0 1.232 -0.052 1.361 -0.557 1.543 -0.156 0.065 -0.337 -0.026 -0.557 -0.233 -0.285 -0.285 -0.311 -0.415 -0.311 -1.426V51.082h-1.556v1.219c0 1.335 -0.104 1.556 -0.739 1.478 -0.493 -0.052 -0.687 -0.493 -0.687 -1.66v-0.972l-0.519 -0.22c-0.519 -0.207 -1.037 -0.869 -1.037 -1.309 0 -0.194 -0.143 -0.22 -1.219 -0.22 -1.128 0 -1.245 -0.026 -1.426 -0.285 -0.532 -0.765 -0.052 -1.141 1.439 -1.141h1.076v-1.556h-1.141c-1.271 0 -1.647 -0.194 -1.556 -0.791 0.065 -0.441 0.557 -0.635 1.698 -0.635h0.998v-1.556h-1.232c-1.102 0 -1.232 -0.026 -1.361 -0.272 -0.22 -0.389 -0.104 -0.804 0.259 -0.985 0.182 -0.091 0.778 -0.169 1.335 -0.169h0.998v-1.426h-1.102c-0.933 0 -1.141 -0.039 -1.361 -0.259 -0.311 -0.311 -0.337 -0.687 -0.052 -0.959 0.156 -0.156 0.48 -0.207 1.361 -0.207h1.154v-1.556h-1.154c-1.063 0 -1.18 -0.026 -1.361 -0.285 -0.259 -0.376 -0.259 -0.609 0.013 -0.908 0.169 -0.194 0.415 -0.233 1.426 -0.233 1.193 0 1.206 0 1.206 -0.311 0 -0.428 0.557 -1.063 1.102 -1.245l0.454 -0.156v-1.089c0 -0.998 0.026 -1.128 0.324 -1.413 0.363 -0.376 0.428 -0.389 0.817 -0.117m23.22 -0.078c0.324 0.169 0.921 1.569 1.076 2.515q0.35 2.081 -1.439 3.15c-1.258 0.752 -3.591 1.05 -4.123 0.519 -0.233 -0.22 -0.272 -0.817 -0.065 -1.024 0.078 -0.078 0.648 -0.143 1.284 -0.156 0.933 -0.013 1.258 -0.078 1.789 -0.337 1.232 -0.609 1.504 -1.504 0.895 -2.917 -0.493 -1.141 -0.519 -1.413 -0.169 -1.672 0.35 -0.246 0.441 -0.246 0.752 -0.078m-33.644 8.025c0.389 0.428 0.156 0.869 -0.726 1.335 -0.428 0.22 -0.921 0.609 -1.102 0.843 -0.635 0.83 -0.532 2.269 0.233 3.475 0.583 0.921 1.504 1.4 3.163 1.621 0.985 0.143 1.387 0.428 1.271 0.921 -0.13 0.467 -0.545 0.622 -1.4 0.506 -1.232 -0.156 -2.178 -0.48 -3.021 -1.037 -0.972 -0.648 -1.439 -1.258 -1.802 -2.334l-0.285 -0.843 -0.83 -0.324c-1.374 -0.57 -2.139 -1.296 -2.528 -2.437 -0.169 -0.48 -0.026 -1.024 0.298 -1.141 0.441 -0.169 0.83 0.078 1.102 0.687 0.35 0.791 0.583 1.037 1.335 1.413 0.441 0.233 0.609 0.272 0.609 0.143 0 -0.402 0.83 -1.789 1.271 -2.139 1.128 -0.882 2.01 -1.141 2.411 -0.687m32.957 -0.052c1.141 0.48 2.036 1.387 2.373 2.437 0.143 0.415 0.207 0.48 0.441 0.402 0.687 -0.194 1.271 -0.726 1.621 -1.452 0.376 -0.778 0.674 -0.946 1.18 -0.674 0.557 0.298 0.259 1.413 -0.648 2.399 -0.583 0.635 -1.128 0.972 -2.023 1.232 -0.493 0.156 -0.545 0.22 -0.687 0.765 -0.402 1.634 -1.815 2.956 -3.682 3.436 -0.622 0.169 -1.439 0.259 -2.048 0.22 -0.272 -0.013 -0.622 -0.363 -0.622 -0.609 0 -0.389 0.609 -0.83 1.154 -0.83 0.713 0 1.945 -0.415 2.619 -0.882 1.128 -0.765 1.698 -2.489 1.232 -3.695 -0.259 -0.7 -0.596 -1.024 -1.517 -1.491 -0.545 -0.272 -0.713 -0.428 -0.739 -0.687 -0.052 -0.389 0.259 -0.765 0.635 -0.765 0.143 0 0.454 0.091 0.713 0.194M44.872 48.489c0.13 0.078 0.363 0.363 0.493 0.635 0.726 1.426 2.411 2.645 3.877 2.8 1.128 0.117 1.309 0.182 1.452 0.454 0.259 0.493 0.013 0.908 -0.895 1.491 -0.998 0.635 -1.634 1.309 -2.373 2.554 -0.441 0.739 -0.583 0.882 -0.869 0.882 -0.817 0 -0.869 -0.726 -0.156 -1.932 0.272 -0.467 0.791 -1.154 1.141 -1.517l0.635 -0.661 -0.933 -0.415c-1.128 -0.506 -2.165 -1.413 -2.878 -2.515 -0.609 -0.921 -0.661 -1.271 -0.285 -1.647 0.298 -0.298 0.428 -0.311 0.791 -0.13m38.597 0.078c0.389 0.272 0.363 0.635 -0.13 1.478 -0.739 1.309 -2.269 2.567 -3.656 3.034 -0.207 0.078 -0.169 0.156 0.35 0.713 0.622 0.661 1.439 1.854 1.647 2.411 0.143 0.376 -0.026 0.946 -0.324 1.05 -0.454 0.182 -0.83 -0.078 -1.258 -0.882 -0.557 -1.05 -1.517 -2.087 -2.424 -2.606 -0.648 -0.376 -0.726 -0.48 -0.765 -0.895 -0.052 -0.57 0.233 -0.882 0.804 -0.882 1.608 0 3.41 -1.089 4.382 -2.658 0.635 -1.011 0.856 -1.128 1.374 -0.765m-30.597 7.52c0.441 0.298 0.35 0.661 -0.35 1.335 -0.765 0.739 -0.985 1.154 -1.18 2.217 -0.402 2.269 -1.75 3.539 -3.734 3.526 -1.569 0 -2.373 -0.557 -1.893 -1.296 0.194 -0.285 0.259 -0.311 0.933 -0.207 0.972 0.13 1.517 0.091 1.958 -0.143 0.557 -0.285 1.154 -1.05 1.245 -1.582 0.324 -1.88 0.895 -3.034 1.854 -3.721 0.545 -0.389 0.765 -0.415 1.167 -0.13m23.052 0.194c0.972 0.765 1.413 1.53 1.685 2.917 0.207 1.141 0.428 1.595 0.959 2.048 0.532 0.441 1.232 0.622 1.88 0.467 0.856 -0.207 1.206 -0.156 1.426 0.182 0.298 0.454 0.078 0.921 -0.545 1.128 -0.7 0.233 -2.074 0.194 -2.697 -0.078 -1.335 -0.583 -2.036 -1.517 -2.411 -3.267 -0.259 -1.167 -0.661 -1.932 -1.232 -2.308 -0.506 -0.324 -0.648 -0.765 -0.389 -1.167 0.285 -0.441 0.7 -0.415 1.322 0.078m-15.921 2.476c0.091 0.091 0.156 0.467 0.156 0.856 0 0.804 0.233 1.387 0.778 1.906 0.428 0.415 0.493 0.843 0.182 1.154 -0.337 0.337 -0.765 0.246 -1.335 -0.311l-0.532 -0.519 -1.465 -0.039c-1.582 -0.052 -2.684 -0.363 -3.721 -1.05 -0.596 -0.389 -0.7 -0.908 -0.259 -1.309 0.259 -0.233 0.298 -0.22 1.426 0.324 1.037 0.493 1.309 0.557 2.334 0.622l1.167 0.065v-0.596c0 -0.933 0.169 -1.258 0.687 -1.258 0.233 0 0.493 0.065 0.583 0.156m8.635 0.052c0.143 0.13 0.207 0.441 0.207 0.908v0.7h0.817c0.985 0 1.971 -0.272 2.969 -0.817 0.713 -0.389 0.739 -0.389 1.076 -0.169 0.519 0.337 0.415 0.933 -0.259 1.4 -1.05 0.726 -3.15 1.219 -4.408 1.037 -0.648 -0.104 -0.648 -0.104 -1.18 0.454 -0.389 0.415 -0.622 0.557 -0.908 0.557 -0.791 0 -0.959 -0.739 -0.298 -1.374 0.57 -0.545 0.765 -0.985 0.765 -1.737 0 -0.363 0.065 -0.778 0.13 -0.921 0.169 -0.298 0.804 -0.337 1.089 -0.039"/><path d="M57.046 36.159c-0.065 0.143 -0.13 0.635 -0.13 1.102v0.856h1.737c0.959 0 1.906 0.065 2.113 0.143 0.194 0.065 0.895 0.648 1.53 1.284 0.648 0.635 1.335 1.219 1.53 1.284 0.207 0.078 1.011 0.143 1.802 0.143 1.4 0 1.439 -0.013 1.88 -0.389 0.765 -0.674 1.854 -0.493 2.308 0.389 0.493 0.946 0.026 1.893 -1.063 2.126 -0.454 0.104 -1.258 -0.194 -1.387 -0.519 -0.052 -0.143 -0.415 -0.182 -1.724 -0.182 -2.399 -0.013 -2.424 -0.013 -3.993 -1.543L60.3 39.543H56.916l0.026 3.462 0.039 3.475 1.932 0.039 1.932 0.039 0.363 -0.35c0.259 -0.246 0.545 -0.363 0.985 -0.402 0.545 -0.065 0.687 -0.013 1.05 0.285 0.972 0.817 0.557 2.347 -0.687 2.58 -0.493 0.104 -1.284 -0.194 -1.413 -0.519 -0.052 -0.143 -0.467 -0.182 -2.087 -0.182h-2.023l0.039 0.804 0.039 0.817 6.768 0.039 6.781 0.026 0.065 -0.298c0.052 -0.156 0.065 -0.648 0.039 -1.063l-0.039 -0.778 -1.685 -0.026c-0.921 -0.026 -1.828 -0.065 -2.01 -0.117 -0.169 -0.039 -0.895 -0.635 -1.595 -1.322l-1.271 -1.258 -1.776 -0.078c-1.737 -0.078 -1.789 -0.065 -2.113 0.233 -1.037 0.946 -2.515 0.324 -2.515 -1.063 0 -0.687 0.402 -1.167 1.115 -1.361 0.557 -0.156 1.361 0.091 1.491 0.454 0.065 0.156 0.35 0.194 1.621 0.194 2.463 0 2.632 0.065 4.201 1.569l1.322 1.284H70.789v-7.001h-1.971c-1.932 0 -1.971 0.013 -2.308 0.324 -1.024 0.985 -2.528 0.363 -2.528 -1.037 0 -1.037 1.128 -1.737 2.061 -1.296 0.246 0.117 0.48 0.298 0.519 0.402 0.052 0.143 0.467 0.182 2.152 0.182h2.074v-0.687c0 -0.376 -0.065 -0.752 -0.156 -0.843 -0.117 -0.117 -1.802 -0.156 -6.807 -0.156 -6.431 0 -6.651 0.013 -6.781 0.246M80.383 94.255v3.397l1.53 -0.052c1.906 -0.065 2.567 -0.324 3.112 -1.245 0.324 -0.57 0.35 -0.713 0.35 -2.036 0 -1.284 -0.039 -1.504 -0.324 -2.074 -0.506 -0.972 -1.089 -1.219 -3.086 -1.322l-1.582 -0.078zm-35.848 0.622c-0.35 0.169 -0.622 0.428 -0.843 0.817 -0.324 0.557 -0.324 0.609 -0.324 3.488v2.917l0.35 0.609c0.454 0.765 1.167 1.076 2.243 0.985 0.856 -0.078 1.322 -0.376 1.685 -1.089 0.233 -0.467 0.259 -0.765 0.259 -3.423s-0.026 -2.956 -0.259 -3.423c-0.389 -0.765 -0.83 -1.024 -1.789 -1.076 -0.583 -0.039 -0.946 0.013 -1.322 0.194"/></svg>
