<svg version="1.0" xmlns="http://www.w3.org/2000/svg" width="200" height="190.814" viewBox="0 0 150 143.111"><path d="M0 71.555v71.555h150V0H0zm68.784 -55.741c1.127 0.172 2.364 0.736 3.116 1.394l0.579 0.501 0.752 -0.579c1.159 -0.892 1.989 -1.206 3.445 -1.284 1.613 -0.094 2.709 0.235 3.993 1.174l0.924 0.689 0.579 -0.501c1.221 -1.08 3.272 -1.66 4.901 -1.409 1.096 0.188 1.863 0.501 2.803 1.174 0.642 0.454 0.846 0.532 1.362 0.454 1.566 -0.204 3.742 0.705 5.12 2.145 1.127 1.19 1.534 2.082 1.628 3.617l0.063 1.206 0.767 0.078c1.206 0.141 2.458 0.83 3.601 1.973 1.331 1.331 1.738 2.333 1.691 4.134l-0.031 1.237 0.846 0.454c2.584 1.409 4.228 4.76 3.789 7.657 -0.204 1.284 -0.783 2.615 -1.55 3.554l-0.548 0.673 0.986 0.986c1.566 1.566 2.474 3.82 2.27 5.621 -0.094 0.736 -0.078 0.752 0.814 1.644 1.394 1.409 2.051 3.053 2.051 5.214 0 2.709 -1.19 5.057 -3.225 6.357l-0.799 0.517 0.063 1.065c0.204 2.709 -1.597 6.091 -3.836 7.234 -0.548 0.282 -0.658 0.407 -0.658 0.799 0 0.846 -0.344 2.114 -0.877 3.241 -0.971 2.035 -2.975 3.648 -5.151 4.134 -0.783 0.172 -0.861 0.235 -1.033 0.752 -0.846 2.646 -3.257 4.791 -6.326 5.574 -1.143 0.297 -3.335 0.297 -4.415 0.016 -1.284 -0.344 -2.396 -0.924 -3.413 -1.769l-0.939 -0.783 -0.673 0.752c-0.767 0.861 -2.161 1.613 -3.507 1.895 -1.722 0.36 -3.93 -0.407 -5.371 -1.848l-0.799 -0.799 -0.783 0.72c-1.487 1.362 -3.413 2.051 -5.699 2.051 -3.946 0 -7.312 -2.286 -8.518 -5.762 -0.172 -0.501 -0.282 -0.564 -1.378 -0.877 -1.441 -0.423 -2.537 -1.112 -3.57 -2.239 -1.237 -1.347 -2.035 -3.21 -2.035 -4.729 0 -0.689 -0.031 -0.736 -0.705 -1.096 -0.908 -0.47 -2.458 -2.129 -2.991 -3.163 -0.658 -1.315 -1.033 -3.038 -0.924 -4.228l0.094 -1.033 -0.517 -0.219c-0.752 -0.313 -2.176 -1.832 -2.677 -2.865 -1.503 -3.1 -0.924 -6.874 1.394 -9.019l0.752 -0.689 -0.031 -1.112c-0.094 -2.004 0.924 -4.243 2.537 -5.668l0.736 -0.658 -0.689 -0.846c-1.691 -2.082 -1.973 -5.01 -0.72 -7.751 0.532 -1.206 2.02 -2.803 3.085 -3.335l0.752 -0.376V30.532c0 -1.174 0.047 -1.456 0.485 -2.396 0.877 -1.848 2.959 -3.429 4.838 -3.648l0.799 -0.094 0.016 -0.971c0.016 -1.801 0.892 -3.445 2.427 -4.572 1.268 -0.939 2.427 -1.362 3.899 -1.394 1.049 -0.016 1.268 -0.078 1.769 -0.454 0.924 -0.72 2.161 -1.159 3.601 -1.331 0.094 0 0.564 0.047 1.065 0.141M41.195 107.662c1.848 0.579 3.147 2.364 3.476 4.791l0.094 0.595h-2.286l-0.11 -0.673c-0.266 -1.691 -1.268 -2.724 -2.787 -2.881 -1.456 -0.141 -2.505 0.376 -3.147 1.566 -0.344 0.642 -0.344 0.767 -0.344 6.31v5.652l0.47 0.767c0.673 1.096 1.534 1.519 2.944 1.425 0.877 -0.063 1.159 -0.141 1.644 -0.532 0.658 -0.517 1.237 -1.55 1.394 -2.443l0.094 -0.579h2.192l-0.094 0.861c-0.094 0.939 -0.642 2.286 -1.284 3.116 -0.924 1.206 -3.288 1.957 -5.214 1.644 -1.895 -0.297 -3.116 -1.19 -3.899 -2.881l-0.438 -0.939v-12.213l0.407 -0.861c0.219 -0.485 0.642 -1.143 0.924 -1.472 1.284 -1.441 3.727 -1.957 5.966 -1.253m61.378 0.626c0.767 0.376 1.221 0.705 1.675 1.3 0.939 1.174 1.206 2.114 1.206 4.165 0 2.145 -0.297 3.21 -1.221 4.337 -1.19 1.456 -2.286 1.848 -5.23 1.848H97.077v7.046h-2.192V107.709l3.335 0.047 3.319 0.047zM57.62 112.782c1.112 0.548 1.863 1.441 2.223 2.662 0.282 0.908 0.282 7.766 0 8.674 -0.36 1.206 -1.127 2.114 -2.286 2.709 -0.971 0.501 -1.174 0.532 -2.411 0.532 -2.129 -0.016 -3.507 -0.783 -4.337 -2.427 -0.532 -1.018 -0.705 -2.333 -0.705 -5.151 0 -3.695 0.313 -5.01 1.472 -6.232 1.394 -1.503 3.946 -1.816 6.044 -0.767m14.264 -0.36c1.002 0.282 1.801 0.986 2.302 2.067 0.266 0.548 0.517 1.253 0.579 1.566l0.094 0.595h-2.176l-0.11 -0.626c-0.141 -0.861 -0.705 -1.487 -1.55 -1.722 -1.691 -0.47 -3.225 0.376 -3.225 1.769 0 1.19 0.501 1.597 3.492 2.834 2.176 0.892 3.038 1.628 3.539 2.959 0.251 0.626 0.204 2.38 -0.047 2.991 -0.344 0.83 -1.268 1.738 -2.176 2.145 -0.939 0.423 -2.834 0.501 -3.977 0.172 -1.613 -0.47 -2.834 -1.879 -3.147 -3.601l-0.141 -0.814h2.129l0.11 0.564c0.125 0.658 0.689 1.378 1.347 1.722 0.266 0.141 0.877 0.235 1.456 0.235 1.675 0 2.427 -0.626 2.427 -2.02 0 -1.284 -0.172 -1.409 -4.118 -3.225 -1.628 -0.736 -2.286 -1.268 -2.709 -2.208 -0.752 -1.597 -0.329 -3.711 0.955 -4.682 1.237 -0.955 3.132 -1.221 4.948 -0.72m10.444 3.398c0.611 1.801 1.3 3.883 1.534 4.666 0.235 0.767 0.47 1.472 0.532 1.534s0.517 -1.237 1.002 -2.897c0.501 -1.66 1.143 -3.82 1.441 -4.791l0.548 -1.754h1.096c0.595 0 1.08 0.031 1.08 0.078 0 0.188 -4.275 14.342 -4.791 15.892 -0.955 2.834 -1.926 3.742 -3.93 3.758H79.854v-1.989l0.783 -0.078c1.284 -0.125 1.785 -0.814 2.49 -3.351l0.36 -1.268 -2.286 -6.451c-1.253 -3.554 -2.286 -6.482 -2.286 -6.529 0 -0.031 0.517 -0.063 1.159 -0.063h1.143zm30.266 -1.722c0.282 0.846 1.018 3.038 1.628 4.87l1.112 3.319 0.971 -3.319c0.532 -1.832 1.19 -4.024 1.456 -4.87l0.47 -1.519h1.08c0.611 0 1.096 0.031 1.096 0.078 0 0.157 -4.243 14.248 -4.791 15.924 -0.908 2.771 -1.91 3.711 -3.93 3.727H110.699v-1.989l0.783 -0.078c1.284 -0.125 1.785 -0.814 2.49 -3.351l0.36 -1.268 -2.286 -6.451c-1.253 -3.554 -2.286 -6.482 -2.286 -6.529 0 -0.031 0.517 -0.063 1.159 -0.063h1.159z"/><path d="M66.529 17.615c-0.877 0.282 -2.082 1.315 -2.505 2.129 -0.157 0.329 -0.344 0.939 -0.391 1.347 -0.125 1.002 -0.438 1.456 -0.971 1.456 -0.251 0 -0.517 -0.078 -0.626 -0.188 -0.282 -0.282 -0.219 -1.487 0.11 -2.458l0.297 -0.83 -0.626 0.094c-1.347 0.219 -2.834 1.237 -3.539 2.427 -0.36 0.626 -0.423 0.892 -0.423 1.973 0 0.971 0.078 1.394 0.344 1.879 0.47 0.892 1.347 1.722 2.317 2.176 1.033 0.485 1.3 0.892 0.939 1.441 -0.313 0.485 -0.814 0.485 -1.91 -0.031 -0.986 -0.47 -2.396 -1.801 -2.709 -2.552 -0.204 -0.501 -0.235 -0.517 -0.908 -0.423 -1.66 0.219 -3.194 1.3 -3.883 2.693 -0.36 0.736 -0.407 0.986 -0.344 1.91 0.078 1.096 0.438 1.989 1.127 2.803 0.344 0.407 0.986 0.783 2.599 1.519 0.767 0.36 0.47 1.503 -0.391 1.503 -1.174 0 -3.476 -1.519 -4.087 -2.693 -0.219 -0.438 -0.235 -0.438 -0.72 -0.188 -0.83 0.438 -2.082 1.738 -2.521 2.615 -1.801 3.695 0.266 7.688 4.29 8.252 0.517 0.078 1.049 0.219 1.174 0.329 0.297 0.235 0.282 0.986 -0.016 1.237 -0.36 0.297 -2.035 0.11 -3.21 -0.36l-1.002 -0.407 -0.689 0.564c-2.709 2.223 -3.053 5.793 -0.767 8.299 0.83 0.892 2.317 1.769 3.053 1.769 0.376 0 0.971 0.501 0.971 0.846 0 0.125 -0.125 0.376 -0.282 0.564 -0.251 0.313 -0.376 0.344 -1.018 0.251 -1.691 -0.251 -3.961 -1.863 -4.916 -3.507l-0.407 -0.673 -0.454 0.438c-0.83 0.799 -1.284 1.973 -1.347 3.554 -0.078 1.66 0.078 2.364 0.783 3.539 1.284 2.114 3.852 3.038 6.451 2.286 0.83 -0.251 0.939 -0.251 1.284 -0.016 0.454 0.282 0.485 0.861 0.094 1.221 -0.47 0.438 -2.129 0.767 -3.507 0.705l-1.253 -0.047 0.063 1.284c0.157 3.022 2.302 5.355 5.151 5.621 0.83 0.078 1.284 0.031 2.161 -0.235 1.206 -0.36 1.628 -0.297 1.816 0.297 0.282 0.892 -1.268 1.644 -3.429 1.644h-1.221l0.094 0.705c0.235 1.722 1.754 3.758 3.382 4.525 1.159 0.548 3.429 0.579 4.572 0.047 0.846 -0.376 2.004 -1.394 2.49 -2.161 0.391 -0.658 0.971 -0.83 1.394 -0.454 0.438 0.391 0.391 0.861 -0.141 1.581 -1.096 1.487 -2.928 2.771 -4.259 2.975 -0.344 0.063 -0.611 0.172 -0.611 0.251s0.172 0.485 0.391 0.924c2.161 4.228 8.455 5.104 11.649 1.613 0.438 -0.485 0.799 -0.924 0.799 -0.971 0 -0.063 -0.141 -0.329 -0.297 -0.595 -0.219 -0.344 -0.736 -0.705 -1.832 -1.253 -1.644 -0.83 -2.662 -1.691 -3.178 -2.693 -0.376 -0.736 -0.251 -1.347 0.297 -1.519 0.344 -0.11 1.096 0.266 1.096 0.548 0 0.438 1.268 1.487 2.677 2.208 1.832 0.939 2.521 1.644 2.818 2.85 0.391 1.722 1.206 2.662 2.803 3.257 2.176 0.83 4.932 -0.501 5.48 -2.646 0.454 -1.816 1.127 -2.599 2.944 -3.413 1.3 -0.595 2.051 -1.159 2.49 -1.895 0.219 -0.376 0.532 -0.752 0.689 -0.846 0.391 -0.204 0.877 -0.047 1.096 0.344 0.47 0.908 -1.018 2.646 -3.272 3.789 -2.396 1.237 -2.568 1.66 -1.206 3.022 3.272 3.272 9.269 2.38 11.414 -1.722 0.532 -1.002 0.517 -1.127 -0.125 -1.237 -1.394 -0.219 -3.554 -1.754 -4.415 -3.116 -0.47 -0.752 -0.47 -1.143 0.016 -1.472 0.517 -0.344 0.924 -0.172 1.487 0.642 0.564 0.83 1.206 1.378 2.255 1.926 0.72 0.376 0.971 0.423 2.364 0.423 1.409 0 1.644 -0.047 2.396 -0.438 1.644 -0.861 3.069 -2.818 3.272 -4.462l0.078 -0.736 -1.3 -0.016c-2.114 -0.016 -3.633 -0.752 -3.351 -1.628 0.188 -0.611 0.642 -0.689 1.832 -0.313 0.846 0.282 1.284 0.344 2.051 0.266 2.223 -0.219 3.601 -1.174 4.603 -3.21 0.517 -1.018 0.595 -1.362 0.642 -2.443l0.063 -1.268 -1.143 0.047c-1.315 0.063 -2.724 -0.188 -3.413 -0.611 -0.626 -0.376 -0.658 -0.971 -0.078 -1.331 0.376 -0.251 0.454 -0.251 1.221 -0.016 1.159 0.376 2.85 0.344 3.914 -0.063 3.476 -1.3 4.588 -5.997 2.161 -9.191 -0.204 -0.266 -0.423 -0.501 -0.485 -0.501 -0.047 0 -0.251 0.282 -0.454 0.642 -0.908 1.581 -2.599 2.881 -4.337 3.351 -1.268 0.344 -1.801 0.188 -1.801 -0.532 0 -0.579 0.188 -0.72 1.456 -1.112 0.814 -0.251 1.253 -0.517 1.957 -1.174 2.834 -2.615 2.724 -6.263 -0.235 -8.737l-0.658 -0.548 -0.955 0.376c-0.517 0.219 -1.394 0.423 -1.957 0.485 -0.846 0.078 -1.08 0.047 -1.331 -0.188 -0.172 -0.157 -0.313 -0.407 -0.313 -0.548 0 -0.517 0.391 -0.767 1.487 -0.939 1.472 -0.219 2.568 -0.783 3.445 -1.754 0.939 -1.049 1.347 -1.989 1.441 -3.351 0.172 -2.349 -1.127 -4.76 -3.053 -5.684 -0.532 -0.251 -0.532 -0.235 -0.861 0.219 -0.924 1.315 -2.521 2.364 -3.867 2.537 -0.517 0.078 -0.626 0.031 -0.861 -0.329 -0.423 -0.642 -0.157 -1.065 0.939 -1.409 1.143 -0.36 2.255 -1.362 2.756 -2.49 0.485 -1.08 0.485 -2.584 0.031 -3.476 -0.689 -1.315 -2.286 -2.427 -3.852 -2.662 -0.689 -0.11 -0.689 -0.11 -1.096 0.579 -0.532 0.924 -1.66 1.942 -2.662 2.411 -0.986 0.454 -1.378 0.47 -1.738 0.078 -0.501 -0.548 -0.266 -0.986 0.814 -1.534 1.253 -0.611 1.816 -1.143 2.333 -2.192 0.517 -1.08 0.564 -2.474 0.094 -3.492 -0.564 -1.284 -2.176 -2.474 -3.711 -2.756 -0.564 -0.094 -0.611 -0.078 -0.485 0.188 0.063 0.157 0.235 0.767 0.36 1.347 0.219 0.955 0.219 1.08 -0.031 1.441 -0.172 0.282 -0.391 0.407 -0.705 0.407 -0.579 0 -0.736 -0.219 -0.861 -1.237 -0.204 -1.581 -1.018 -2.709 -2.505 -3.507 -1.002 -0.517 -2.709 -0.485 -3.883 0.094 -1.456 0.72 -2.474 2.239 -2.474 3.727 0 0.861 -0.924 1.237 -1.487 0.611 -0.297 -0.329 -0.266 -0.799 0.172 -2.693 0.078 -0.36 0 -0.517 -0.423 -0.924 -1.613 -1.519 -4.4 -1.487 -5.919 0.078l-0.517 0.532 0.251 0.72c0.297 0.861 0.329 2.145 0.063 2.411 -0.251 0.251 -0.986 0.235 -1.206 -0.031 -0.11 -0.125 -0.251 -0.642 -0.329 -1.159 -0.157 -1.127 -0.423 -1.66 -1.206 -2.396 -1.237 -1.19 -3.069 -1.644 -4.603 -1.159m1.581 3.178c0.344 0.282 0.344 0.344 0.188 1.018 -0.266 1.065 -0.235 1.66 0.188 2.552 0.407 0.861 0.955 1.362 2.208 1.989 0.83 0.407 1.926 1.472 2.317 2.239 0.877 1.722 0.517 4.76 -0.579 4.76 -0.188 0 -0.485 -0.141 -0.642 -0.313 -0.251 -0.282 -0.266 -0.391 -0.078 -1.221 0.344 -1.644 -0.297 -3.038 -1.832 -3.93 -1.675 -0.986 -2.082 -1.3 -2.552 -2.02 -0.861 -1.3 -1.143 -2.818 -0.752 -4.165 0.329 -1.159 0.846 -1.472 1.534 -0.908m18.883 -0.047c0.485 0.329 0.752 1.472 0.626 2.615 -0.204 1.973 -1.221 3.398 -3.194 4.431 -1.785 0.924 -2.396 2.114 -2.035 3.946 0.157 0.877 0.157 1.002 -0.11 1.3 -0.36 0.391 -0.892 0.407 -1.221 0.031 -0.438 -0.47 -0.658 -1.926 -0.438 -2.944 0.36 -1.863 1.221 -2.944 3.147 -4.04 1.801 -1.002 2.411 -2.161 2.051 -3.883 -0.157 -0.814 -0.157 -0.986 0.063 -1.315 0.282 -0.423 0.642 -0.485 1.112 -0.141m-20.715 8.721c0.141 0.11 0.297 0.376 0.344 0.595 0.125 0.501 -0.204 0.814 -1.221 1.143 -0.423 0.141 -1.237 0.595 -1.801 1.018 -0.579 0.423 -1.284 0.846 -1.566 0.971 -0.47 0.188 -0.501 0.235 -0.407 0.767 0.313 1.722 1.566 2.897 3.492 3.319 0.908 0.188 1.159 0.423 1.08 1.033 -0.063 0.611 -0.564 0.814 -1.55 0.642 -2.443 -0.438 -4.149 -2.161 -4.682 -4.697 -0.157 -0.767 -0.235 -0.924 -0.579 -1.002 -0.219 -0.063 -0.72 -0.282 -1.127 -0.517 -0.391 -0.219 -1.002 -0.548 -1.347 -0.72 -0.47 -0.235 -0.642 -0.423 -0.673 -0.752 -0.125 -1.096 0.767 -1.159 2.724 -0.172 1.691 0.846 2.114 0.83 3.382 -0.125 0.971 -0.72 1.832 -1.19 2.709 -1.472 0.814 -0.251 0.908 -0.251 1.221 -0.031m23.314 0.235c0.391 0.141 1.221 0.626 1.832 1.065 1.566 1.159 2.286 1.237 3.711 0.36 1.378 -0.846 2.27 -0.986 2.568 -0.423 0.36 0.658 0.141 0.924 -1.378 1.722 -0.814 0.423 -1.566 0.767 -1.691 0.767 -0.235 0 -0.532 0.611 -0.532 1.096 0 0.658 -0.673 2.067 -1.347 2.803 -0.783 0.861 -2.114 1.597 -3.398 1.863 -0.971 0.204 -1.3 0.11 -1.534 -0.454 -0.251 -0.611 0.094 -1.002 1.096 -1.221 1.127 -0.235 1.519 -0.423 2.176 -1.033 0.673 -0.595 1.127 -1.394 1.284 -2.286 0.094 -0.532 0.078 -0.579 -0.407 -0.752 -0.297 -0.11 -0.877 -0.454 -1.284 -0.799 -0.846 -0.658 -1.754 -1.159 -2.411 -1.315 -0.892 -0.204 -1.159 -1.347 -0.391 -1.66 0.376 -0.141 0.579 -0.11 1.707 0.266M56.524 38.518c0.407 0.407 0.391 0.564 -0.078 1.613 -0.908 1.973 -0.658 3.085 0.861 3.836 0.705 0.344 1.08 0.423 2.145 0.438 1.425 0.016 1.769 0.172 1.769 0.846 0 0.705 -0.36 0.861 -1.942 0.846 -2.427 -0.016 -4.071 -0.908 -4.791 -2.599 -0.297 -0.689 -0.344 -1.002 -0.266 -1.895 0.11 -1.315 0.846 -3.022 1.394 -3.241 0.517 -0.204 0.564 -0.188 0.908 0.157m13.904 -0.063c0.313 0.219 0.344 0.36 0.344 1.722v1.472h1.879v-1.378c0 -1.472 0.047 -1.613 0.595 -1.895 0.297 -0.157 0.438 -0.157 0.752 0.063 0.36 0.235 0.376 0.329 0.376 1.722v1.487h1.879v-1.472c0 -1.519 0.063 -1.675 0.736 -1.879 0.235 -0.078 0.438 -0.016 0.658 0.204 0.282 0.282 0.329 0.532 0.329 1.738v1.409h1.879v-1.472c0 -1.519 0.063 -1.675 0.736 -1.879 0.235 -0.078 0.438 -0.016 0.658 0.204 0.282 0.282 0.329 0.532 0.329 1.738v1.409h1.863l0.047 -1.519c0.047 -1.425 0.078 -1.534 0.407 -1.707 0.892 -0.438 1.284 0.157 1.284 1.973 0 1.221 0 1.221 0.454 1.331 0.548 0.11 1.237 0.814 1.409 1.425 0.11 0.454 0.11 0.454 1.644 0.532 1.597 0.078 1.816 0.188 1.816 0.892 0 0.595 -0.564 0.83 -1.989 0.83H87.213v1.879h1.487c1.331 0 1.487 0.031 1.644 0.329 0.266 0.47 0.125 0.971 -0.313 1.19 -0.219 0.11 -0.939 0.204 -1.597 0.204H87.213v1.879h1.472c1.613 0 1.879 0.125 1.785 0.892 -0.063 0.611 -0.611 0.83 -2.035 0.83H87.213v1.722h1.3c1.519 0 1.989 0.219 1.989 0.939 0 0.642 -0.36 0.783 -1.942 0.783H87.213v1.879h1.362c1.472 0 1.926 0.204 1.926 0.877s-0.376 0.846 -1.879 0.846h-1.378l-0.172 0.501c-0.235 0.673 -0.736 1.174 -1.362 1.378l-0.532 0.188v1.19c0 0.658 -0.047 1.362 -0.094 1.55 -0.125 0.485 -0.877 0.72 -1.3 0.423 -0.297 -0.219 -0.329 -0.391 -0.329 -1.722V61.691h-1.879v1.394c0 1.566 -0.157 1.895 -0.939 1.895 -0.642 0 -0.783 -0.376 -0.783 -1.942V61.691h-1.879v1.456c0 1.628 -0.11 1.832 -0.892 1.832 -0.689 0 -0.83 -0.329 -0.83 -1.942V61.691h-1.879v1.472c0 1.487 -0.063 1.644 -0.673 1.863 -0.188 0.078 -0.407 -0.031 -0.673 -0.282 -0.344 -0.344 -0.376 -0.501 -0.376 -1.722V61.691h-1.879v1.472c0 1.613 -0.125 1.879 -0.892 1.785 -0.595 -0.063 -0.83 -0.595 -0.83 -2.004v-1.174l-0.626 -0.266c-0.626 -0.251 -1.253 -1.049 -1.253 -1.581 0 -0.235 -0.172 -0.266 -1.472 -0.266 -1.362 0 -1.503 -0.031 -1.722 -0.344 -0.642 -0.924 -0.063 -1.378 1.738 -1.378h1.3v-1.879h-1.378c-1.534 0 -1.989 -0.235 -1.879 -0.955 0.078 -0.532 0.673 -0.767 2.051 -0.767h1.206v-1.879h-1.487c-1.331 0 -1.487 -0.031 -1.644 -0.329 -0.266 -0.47 -0.125 -0.971 0.313 -1.19 0.219 -0.11 0.939 -0.204 1.613 -0.204h1.206v-1.722h-1.331c-1.127 0 -1.378 -0.047 -1.644 -0.313 -0.376 -0.376 -0.407 -0.83 -0.063 -1.159 0.188 -0.188 0.579 -0.251 1.644 -0.251h1.394v-1.879h-1.394c-1.284 0 -1.425 -0.031 -1.644 -0.344 -0.313 -0.454 -0.313 -0.736 0.016 -1.096 0.204 -0.235 0.501 -0.282 1.722 -0.282 1.441 0 1.456 0 1.456 -0.376 0 -0.517 0.673 -1.284 1.331 -1.503l0.548 -0.188v-1.315c0 -1.206 0.031 -1.362 0.391 -1.707 0.438 -0.454 0.517 -0.47 0.986 -0.141m28.043 -0.094c0.391 0.204 1.112 1.895 1.3 3.038q0.423 2.513 -1.738 3.805c-1.519 0.908 -4.337 1.268 -4.979 0.626 -0.282 -0.266 -0.329 -0.986 -0.078 -1.237 0.094 -0.094 0.783 -0.172 1.55 -0.188 1.127 -0.016 1.519 -0.094 2.161 -0.407 1.487 -0.736 1.816 -1.816 1.08 -3.523 -0.595 -1.378 -0.626 -1.707 -0.204 -2.02 0.423 -0.297 0.532 -0.297 0.908 -0.094m-40.632 9.692c0.47 0.517 0.188 1.049 -0.877 1.613 -0.517 0.266 -1.112 0.736 -1.331 1.018 -0.767 1.002 -0.642 2.74 0.282 4.196 0.705 1.112 1.816 1.691 3.82 1.957 1.19 0.172 1.675 0.517 1.534 1.112 -0.157 0.564 -0.658 0.752 -1.691 0.611 -1.487 -0.188 -2.63 -0.579 -3.648 -1.253 -1.174 -0.783 -1.738 -1.519 -2.176 -2.818l-0.344 -1.018 -1.002 -0.391c-1.66 -0.689 -2.584 -1.566 -3.053 -2.944 -0.204 -0.579 -0.031 -1.237 0.36 -1.378 0.532 -0.204 1.002 0.094 1.331 0.83 0.423 0.955 0.705 1.253 1.613 1.707 0.532 0.282 0.736 0.329 0.736 0.172 0 -0.485 1.002 -2.161 1.534 -2.584 1.362 -1.065 2.427 -1.378 2.912 -0.83m39.802 -0.063c1.378 0.579 2.458 1.675 2.865 2.944 0.172 0.501 0.251 0.579 0.532 0.485 0.83 -0.235 1.534 -0.877 1.957 -1.754 0.454 -0.939 0.814 -1.143 1.425 -0.814 0.673 0.36 0.313 1.707 -0.783 2.897 -0.705 0.767 -1.362 1.174 -2.443 1.487 -0.595 0.188 -0.658 0.266 -0.83 0.924 -0.485 1.973 -2.192 3.57 -4.447 4.149 -0.752 0.204 -1.738 0.313 -2.474 0.266 -0.329 -0.016 -0.752 -0.438 -0.752 -0.736 0 -0.47 0.736 -1.002 1.394 -1.002 0.861 0 2.349 -0.501 3.163 -1.065 1.362 -0.924 2.051 -3.006 1.487 -4.462 -0.313 -0.846 -0.72 -1.237 -1.832 -1.801 -0.658 -0.329 -0.861 -0.517 -0.892 -0.83 -0.063 -0.47 0.313 -0.924 0.767 -0.924 0.172 0 0.548 0.11 0.861 0.235M54.191 58.56c0.157 0.094 0.438 0.438 0.595 0.767 0.877 1.722 2.912 3.194 4.682 3.382 1.362 0.141 1.581 0.219 1.754 0.548 0.313 0.595 0.016 1.096 -1.08 1.801 -1.206 0.767 -1.973 1.581 -2.865 3.085 -0.532 0.892 -0.705 1.065 -1.049 1.065 -0.986 0 -1.049 -0.877 -0.188 -2.333 0.329 -0.564 0.955 -1.394 1.378 -1.832l0.767 -0.799 -1.127 -0.501c-1.362 -0.611 -2.615 -1.707 -3.476 -3.038 -0.736 -1.112 -0.799 -1.534 -0.344 -1.989 0.36 -0.36 0.517 -0.376 0.955 -0.157m46.613 0.094c0.47 0.329 0.438 0.767 -0.157 1.785 -0.892 1.581 -2.74 3.1 -4.415 3.664 -0.251 0.094 -0.204 0.188 0.423 0.861 0.752 0.799 1.738 2.239 1.989 2.912 0.172 0.454 -0.031 1.143 -0.391 1.268 -0.548 0.219 -1.002 -0.094 -1.519 -1.065 -0.673 -1.268 -1.832 -2.521 -2.928 -3.147 -0.783 -0.454 -0.877 -0.579 -0.924 -1.08 -0.063 -0.689 0.282 -1.065 0.971 -1.065 1.942 0 4.118 -1.315 5.292 -3.21 0.767 -1.221 1.033 -1.362 1.66 -0.924m-36.952 9.081c0.532 0.36 0.423 0.799 -0.423 1.613 -0.924 0.892 -1.19 1.394 -1.425 2.677 -0.485 2.74 -2.114 4.275 -4.509 4.259 -1.895 0 -2.865 -0.673 -2.286 -1.566 0.235 -0.344 0.313 -0.376 1.127 -0.251 1.174 0.157 1.832 0.11 2.364 -0.172 0.673 -0.344 1.394 -1.268 1.503 -1.91 0.391 -2.27 1.08 -3.664 2.239 -4.494 0.658 -0.47 0.924 -0.501 1.409 -0.157m27.839 0.235c1.174 0.924 1.707 1.848 2.035 3.523 0.251 1.378 0.517 1.926 1.159 2.474 0.642 0.532 1.487 0.752 2.27 0.564 1.033 -0.251 1.456 -0.188 1.722 0.219 0.36 0.548 0.094 1.112 -0.658 1.362 -0.846 0.282 -2.505 0.235 -3.257 -0.094 -1.613 -0.705 -2.458 -1.832 -2.912 -3.946 -0.313 -1.409 -0.799 -2.333 -1.487 -2.787 -0.611 -0.391 -0.783 -0.924 -0.47 -1.409 0.344 -0.532 0.846 -0.501 1.597 0.094m-19.228 2.991c0.11 0.11 0.188 0.564 0.188 1.033 0 0.971 0.282 1.675 0.939 2.302 0.517 0.501 0.595 1.018 0.219 1.394 -0.407 0.407 -0.924 0.297 -1.613 -0.376l-0.642 -0.626 -1.769 -0.047c-1.91 -0.063 -3.241 -0.438 -4.494 -1.268 -0.72 -0.47 -0.846 -1.096 -0.313 -1.581 0.313 -0.282 0.36 -0.266 1.722 0.391 1.253 0.595 1.581 0.673 2.818 0.752l1.409 0.078v-0.72c0 -1.127 0.204 -1.519 0.83 -1.519 0.282 0 0.595 0.078 0.705 0.188m10.428 0.063c0.172 0.157 0.251 0.532 0.251 1.096v0.846h0.986c1.19 0 2.38 -0.329 3.586 -0.986 0.861 -0.47 0.892 -0.47 1.3 -0.204 0.626 0.407 0.501 1.127 -0.313 1.691 -1.268 0.877 -3.805 1.472 -5.324 1.253 -0.783 -0.125 -0.783 -0.125 -1.425 0.548 -0.47 0.501 -0.752 0.673 -1.096 0.673 -0.955 0 -1.159 -0.892 -0.36 -1.66 0.689 -0.658 0.924 -1.19 0.924 -2.098 0 -0.438 0.078 -0.939 0.157 -1.112 0.204 -0.36 0.971 -0.407 1.315 -0.047"/><path d="M68.894 43.669c-0.078 0.172 -0.157 0.767 -0.157 1.331v1.033h2.098c1.159 0 2.302 0.078 2.552 0.172 0.235 0.078 1.08 0.783 1.848 1.55 0.783 0.767 1.613 1.472 1.848 1.55 0.251 0.094 1.221 0.172 2.176 0.172 1.691 0 1.738 -0.016 2.27 -0.47 0.924 -0.814 2.239 -0.595 2.787 0.47 0.595 1.143 0.031 2.286 -1.284 2.568 -0.548 0.125 -1.519 -0.235 -1.675 -0.626 -0.063 -0.172 -0.501 -0.219 -2.082 -0.219 -2.897 -0.016 -2.928 -0.016 -4.823 -1.863L72.824 47.756H68.737l0.031 4.181 0.047 4.196 2.333 0.047 2.333 0.047 0.438 -0.423c0.313 -0.297 0.658 -0.438 1.19 -0.485 0.658 -0.078 0.83 -0.016 1.268 0.344 1.174 0.986 0.673 2.834 -0.83 3.116 -0.595 0.125 -1.55 -0.235 -1.707 -0.626 -0.063 -0.172 -0.564 -0.219 -2.521 -0.219h-2.443l0.047 0.971 0.047 0.986 8.173 0.047 8.189 0.031 0.078 -0.36c0.063 -0.188 0.078 -0.783 0.047 -1.284l-0.047 -0.939 -2.035 -0.031c-1.112 -0.031 -2.208 -0.078 -2.427 -0.141 -0.204 -0.047 -1.08 -0.767 -1.926 -1.597l-1.534 -1.519 -2.145 -0.094c-2.098 -0.094 -2.161 -0.078 -2.552 0.282 -1.253 1.143 -3.038 0.391 -3.038 -1.284 0 -0.83 0.485 -1.409 1.347 -1.644 0.673 -0.188 1.644 0.11 1.801 0.548 0.078 0.188 0.423 0.235 1.957 0.235 2.975 0 3.178 0.078 5.073 1.895l1.597 1.55H85.491v-8.455h-2.38c-2.333 0 -2.38 0.016 -2.787 0.391 -1.237 1.19 -3.053 0.438 -3.053 -1.253 0 -1.253 1.362 -2.098 2.49 -1.566 0.297 0.141 0.579 0.36 0.626 0.485 0.063 0.172 0.564 0.219 2.599 0.219h2.505v-0.83c0 -0.454 -0.078 -0.908 -0.188 -1.018 -0.141 -0.141 -2.176 -0.188 -8.22 -0.188 -7.766 0 -8.032 0.016 -8.189 0.297M97.077 113.831v4.102l1.848 -0.063c2.302 -0.078 3.1 -0.391 3.758 -1.503 0.391 -0.689 0.423 -0.861 0.423 -2.458 0 -1.55 -0.047 -1.816 -0.391 -2.505 -0.611 -1.174 -1.315 -1.472 -3.727 -1.597l-1.91 -0.094zm-43.293 0.752c-0.423 0.204 -0.752 0.517 -1.018 0.986 -0.391 0.673 -0.391 0.736 -0.391 4.212v3.523l0.423 0.736c0.548 0.924 1.409 1.3 2.709 1.19 1.033 -0.094 1.597 -0.454 2.035 -1.315 0.282 -0.564 0.313 -0.924 0.313 -4.134s-0.031 -3.57 -0.313 -4.134c-0.47 -0.924 -1.002 -1.237 -2.161 -1.3 -0.705 -0.047 -1.143 0.016 -1.597 0.235"/></svg>
